<?xml version="1.0" encoding="UTF-8" standalone="no"?>
<!-- Created with Inkscape (http://www.inkscape.org/) -->

<svg
   xmlns:osb="http://www.openswatchbook.org/uri/2009/osb"
   xmlns:dc="http://purl.org/dc/elements/1.1/"
   xmlns:cc="http://creativecommons.org/ns#"
   xmlns:rdf="http://www.w3.org/1999/02/22-rdf-syntax-ns#"
   xmlns:svg="http://www.w3.org/2000/svg"
   xmlns="http://www.w3.org/2000/svg"
   xmlns:sodipodi="http://sodipodi.sourceforge.net/DTD/sodipodi-0.dtd"
   xmlns:inkscape="http://www.inkscape.org/namespaces/inkscape"
   version="1.1"
   id="svg2"
   width="600.29999"
   height="600"
   viewBox="0 0 600.29999 600"
   sodipodi:docname="drapery-logo.svg"
   inkscape:export-filename="/home/omar/Github/Drapery/logo/drapery-logo.png"
   inkscape:export-xdpi="323.67545"
   inkscape:export-ydpi="323.67545"
   inkscape:version="0.92.1 r15371">
  <metadata
     id="metadata8">
    <rdf:RDF>
      <cc:Work
         rdf:about="">
        <dc:format>image/svg+xml</dc:format>
        <dc:type
           rdf:resource="http://purl.org/dc/dcmitype/StillImage" />
        <dc:title></dc:title>
      </cc:Work>
    </rdf:RDF>
  </metadata>
  <defs
     id="defs6">
    <linearGradient
       inkscape:collect="always"
       id="linearGradient864"
       osb:paint="gradient">
      <stop
         style="stop-color:#000000;stop-opacity:1;"
         offset="0"
         id="stop860" />
      <stop
         style="stop-color:#000000;stop-opacity:0;"
         offset="1"
         id="stop862" />
    </linearGradient>
  </defs>
  <sodipodi:namedview
     pagecolor="#ffffff"
     bordercolor="#666666"
     borderopacity="1"
     objecttolerance="10"
     gridtolerance="10"
     guidetolerance="10"
     inkscape:pageopacity="0"
     inkscape:pageshadow="2"
     inkscape:window-width="1600"
     inkscape:window-height="825"
     id="namedview4"
     showgrid="false"
     inkscape:zoom="0.55625733"
     inkscape:cx="-119.2022"
     inkscape:cy="319.96318"
     inkscape:window-x="0"
     inkscape:window-y="24"
     inkscape:window-maximized="1"
     inkscape:current-layer="svg2" />
  <ellipse
     style="opacity:1;fill:#000000;fill-opacity:0.22746781;stroke:none;stroke-width:1.49081206;stroke-linecap:round;stroke-linejoin:bevel;stroke-miterlimit:4;stroke-dasharray:none;stroke-opacity:1;paint-order:normal"
     id="path12"
     cx="-303.68155"
     cy="-304.80273"
     rx="296.61841"
     ry="295.19724"
     transform="scale(-1)" />
  <ellipse
     style="opacity:1;fill:#4527a0;fill-opacity:1;stroke:none;stroke-width:1.47978914;stroke-linecap:round;stroke-linejoin:bevel;stroke-miterlimit:4;stroke-dasharray:none;stroke-opacity:1;paint-order:normal"
     id="path12-6"
     cx="-301.1196"
     cy="-301.05038"
     rx="293.79407"
     ry="293.64407"
     transform="scale(-1)" />
  <g
     id="g1510"
     transform="translate(-944.4915,-62.288136)"
     style="fill:#ede7f6;fill-opacity:1">
    <path
       style="fill:#ede7f6;stroke-width:0.30000001;fill-opacity:1"
       d="m 1235.8856,573.93557 c -1.485,-0.31944 -5.0625,-1.24425 -7.95,-2.05512 -2.8875,-0.8109 -7.275,-2.03805 -9.75,-2.727 -8.572,-2.38614 -24.4936,-7.62669 -32.1,-10.56567 -11.1612,-4.31241 -32.331,-14.37762 -37.8833,-18.01164 -1.1092,-0.726 -2.8942,-1.83777 -3.9667,-2.47062 -5.4664,-3.22551 -13.8484,-9.23751 -19.8,-14.20161 -4.7293,-3.94449 -13.1455,-12.40053 -16.3158,-16.3929 -8.3332,-10.49388 -14.4456,-21.58473 -18.3525,-33.3 -2.0436,-6.12825 -2.9314,-11.48001 -3.7572,-22.65 -0.6304,-8.52726 0.3041,-21.32532 2.3087,-31.61718 1.4139,-7.25937 6.4075,-23.35047 9.9253,-31.98282 4.4364,-10.88664 16.0491,-34.96476 21.9202,-45.45 9.4172,-16.81856 20.9995,-35.15082 38.3816,-60.74999 19.5716,-28.82361 29.3911,-43.65138 33.6747,-50.85 11.1339,-18.71019 16.8462,-30.18217 20.4572,-41.08375 3.3304,-10.05442 4.3413,-17.18942 4.0614,-28.66625 -0.1449,-5.93834 -0.2918,-7.62298 -0.9317,-10.68373 -0.9393,-4.49299 -2.115,-7.88762 -4.3739,-12.62873 -2.0047,-4.20791 -2.3426,-5.3295 -1.6819,-5.58305 1.0638,-0.4082 6.1857,3.03945 14.8839,10.01862 28.6644,22.99956 52.1702,48.10642 70.1509,74.92904 13.6777,20.40372 25.429,45.24636 30.8181,65.15066 2.2115,8.16798 2.5474,9.57554 3.8652,16.19719 2.08,10.45131 2.6085,15.52299 3.1839,30.55334 0.5952,15.55002 -0.405,30.38646 -2.7638,40.99665 -0.9595,4.31604 -1.7543,8.631 -1.7543,9.5244 0,2.03493 1.8548,0.21342 5.5427,-5.44311 10.3705,-15.9066 15.2258,-30.87625 16.6487,-51.33128 0.9427,-13.55097 -0.6551,-32.20255 -3.8994,-45.51941 -1.3732,-5.63648 -5.5914,-18.05914 -8.1975,-24.14179 -7.2225,-16.85684 -13.6086,-26.36939 -27.3138,-40.68571 -2.5784,-2.6933 -4.8923,-5.29205 -5.142,-5.775 l -0.4541,-0.87809 h 0.9532 c 1.1638,0 4.3041,1.76315 9.9386,5.58023 8.6012,5.82686 15.9895,12.46118 24.7038,22.18293 9.4731,10.56833 16.7904,21.08788 24.5027,35.22586 7.4535,13.66364 13.6855,29.21769 18.275,45.61098 1.6831,6.01232 4.6762,20.28596 5.5987,26.69999 4.2634,29.6436 3.4996,53.78112 -2.4801,78.38115 -3.1657,13.02372 -6.0238,20.86839 -11.775,32.31885 -4.3952,8.75064 -6.7879,12.53604 -13.7515,21.75513 -4.3743,5.79111 -13.4938,15.24873 -19.8174,20.5521 -3.0809,2.58387 -11.5268,8.41038 -15.7326,10.85343 -7.1044,4.12674 -16.5389,8.60415 -22.6206,10.73523 -1.8312,0.64167 -4.0251,1.43958 -4.8755,1.77315 -1.5042,0.5901 -4.8597,1.57008 -12.854,3.75396 -6.3535,1.73571 -10.4982,2.46942 -11.2447,1.99065 -0.6392,-0.40998 0.6619,-1.69188 4.1947,-4.13277 10.1311,-6.99975 18.3626,-15.66783 25.4097,-26.75727 7.6723,-12.07332 12.4769,-24.5892 15.2105,-39.62361 1.2573,-6.91443 1.4646,-9.72297 1.2926,-17.51406 -0.1604,-7.26744 -0.4702,-10.11363 -1.7453,-16.03287 -2.257,-10.47753 -7.142,-18.79836 -14.1256,-24.06066 -5.1376,-3.87126 -9.8158,-5.39241 -16.5839,-5.39241 -3.9292,0 -6.0326,0.47013 -9.0971,2.03331 -9.9716,5.08641 -21.384,20.70933 -27.8108,38.07135 -0.5996,1.61994 -1.4839,3.98115 -1.965,5.24715 -2.6692,7.02441 -6.1149,22.08603 -7.1756,31.36572 -1.3268,11.60763 -1.3843,26.90361 -0.1501,39.93438 0.4198,4.43223 1.1945,9.76893 1.4867,10.24179 0.073,0.11787 0.5489,2.09124 1.0579,4.38531 0.509,2.29404 1.5938,6.23901 2.4107,8.76657 0.8169,2.52756 1.4853,4.7271 1.4853,4.88787 0,1.17552 7.0737,16.28484 10.799,23.06655 1.5867,2.8884 2.3621,4.8 1.9471,4.8 -0.6341,0 -2.5421,-1.09647 -3.5921,-2.0643 -2.4106,-2.22204 -8.2986,-8.53797 -11.3115,-12.13365 -5.9388,-7.0875 -10.359,-13.51377 -15.5718,-22.63896 -7.5593,-13.23288 -12.6606,-25.81809 -16.1377,-39.81309 -2.2506,-9.05835 -3.1937,-15.8886 -3.5003,-25.35 -0.088,-2.7225 -0.2058,-5.5575 -0.2613,-6.3 -0.1473,-1.97028 0.3545,-15.41787 0.7325,-19.6329 0.1785,-1.98939 0.5266,-5.0346 0.7737,-6.7671 0.5365,-3.76095 3.4202,-15.67119 4.6125,-19.05 0.4658,-1.32 1.3166,-3.8175 1.8907,-5.55 1.2342,-3.72447 3.592,-9.85182 4.2417,-11.02287 0.2523,-0.45492 1.4794,-3.05463 2.7268,-5.77713 2.2466,-4.90347 8.3512,-16.72752 11.7713,-22.8 0.9757,-1.7325 2.7642,-4.905 3.9743,-7.05 8.2995,-14.7111 17.7206,-33.0644 21.2515,-41.39999 4.6483,-10.9736 7.0754,-18.86975 8.3453,-27.15 0.747,-4.87023 0.7503,-20.62374 0.01,-26.22141 -1.9044,-14.31445 -8.1361,-30.91644 -19.2986,-51.41382 -4.1052,-7.53844 -8.0023,-13.86477 -8.5409,-13.86477 -0.4054,0 -0.3008,2.20191 0.1675,3.52942 1.2296,3.48491 1.9786,15.94969 1.4049,23.37844 -0.4697,6.08258 -0.8963,8.32864 -2.7002,14.21685 -5.8096,18.9641 -15.2153,34.28277 -44.0802,71.79126 -5.7283,7.44372 -10.7414,14.00653 -11.1403,14.58403 -0.3988,0.5775 -2.03,2.805 -3.6248,4.94999 -9.9947,13.44265 -23.1158,35.04618 -28.8797,47.55 -9.1983,19.95393 -13.9786,37.06803 -16.005,57.3 -0.7283,7.27083 -0.7239,20.97405 0.01,27 1.5443,12.7047 3.8705,21.18237 8.7973,32.06166 4.5975,10.15203 9.7377,17.97264 17.9688,27.33834 3.8366,4.36551 12.1577,12.48177 16.6358,16.22619 7.2741,6.08241 19.0501,14.20809 30.6544,21.15204 6.3932,3.82569 8.2969,4.86105 18.8353,10.24392 8.0682,4.12107 9.1429,4.74348 9.7248,5.63148 0.4828,0.73683 0.4777,0.74637 -0.3934,0.74637 -0.4853,0 -1.0621,0.0574 -1.2819,0.12768 -0.2197,0.0702 -1.6145,-0.13371 -3.0995,-0.45312 z"
       id="path1524"
       inkscape:connector-curvature="0"
       sodipodi:nodetypes="ccccccsscccssssscccsscccccscccccccsscccccccccsccccsccccssccccccsscsccscccsscsccccccccscccssccscccscccsccc" />
  </g>
</svg>
